<mxfile host="app.diagrams.net" agent="Mozilla/5.0 (X11; Linux x86_64) AppleWebKit/537.36 (KHTML, like Gecko) Chrome/109.0.0.0 Safari/537.36" version="26.0.6">
  <diagram name="Page-1" id="90a13364-a465-7bf4-72fc-28e22215d7a0">
    <mxGraphModel dx="1195" dy="647" grid="1" gridSize="10" guides="1" tooltips="1" connect="1" arrows="1" fold="1" page="1" pageScale="1.5" pageWidth="1169" pageHeight="826" background="none" math="0" shadow="0">
      <root>
        <mxCell id="0" style=";html=1;" />
        <mxCell id="1" style=";html=1;" parent="0" />
        <mxCell id="3a17f1ce550125da-1" value="&lt;span style=&quot;font-size: 18px;&quot;&gt;Dummy&lt;/span&gt;" style="whiteSpace=wrap;html=1;shadow=1;fontSize=20;fillColor=#f5f5f5;strokeColor=#666666;strokeWidth=2;dashed=1;" parent="1" vertex="1">
          <mxGeometry x="1030" y="330" width="150" height="60" as="geometry" />
        </mxCell>
        <mxCell id="3a17f1ce550125da-13" style="edgeStyle=elbowEdgeStyle;rounded=0;html=1;startArrow=none;startFill=0;jettySize=auto;orthogonalLoop=1;fontSize=18;elbow=vertical;" parent="1" edge="1">
          <mxGeometry relative="1" as="geometry">
            <mxPoint x="950" y="469.99666666666667" as="sourcePoint" />
            <mxPoint x="1040" y="469.9966666666668" as="targetPoint" />
          </mxGeometry>
        </mxCell>
        <mxCell id="3a17f1ce550125da-2" value="&lt;div&gt;&lt;font style=&quot;font-size: 21px;&quot;&gt;&lt;b&gt;RV32I43O&lt;/b&gt;&lt;/font&gt;&lt;/div&gt;&lt;div&gt;&lt;font style=&quot;font-size: 21px;&quot;&gt;Core Unit&lt;/font&gt;&lt;/div&gt;" style="whiteSpace=wrap;html=1;shadow=1;fontSize=18;fillColor=#f5f5f5;strokeColor=#666666;" parent="1" vertex="1">
          <mxGeometry x="770" y="440" width="180" height="280" as="geometry" />
        </mxCell>
        <mxCell id="3a17f1ce550125da-6" value="Dummy" style="whiteSpace=wrap;html=1;shadow=1;fontSize=18;fillColor=#f5f5f5;strokeColor=#666666;" parent="1" vertex="1">
          <mxGeometry x="1320" y="630" width="120" height="60" as="geometry" />
        </mxCell>
        <mxCell id="3a17f1ce550125da-7" value="Dummy" style="whiteSpace=wrap;html=1;shadow=1;fontSize=18;fillColor=#f5f5f5;strokeColor=#666666;" parent="1" vertex="1">
          <mxGeometry x="1320" y="710" width="120" height="60" as="geometry" />
        </mxCell>
        <mxCell id="3a17f1ce550125da-10" value="Memory&lt;div&gt;Controller&lt;/div&gt;" style="whiteSpace=wrap;html=1;shadow=1;fontSize=18;fillColor=#f5f5f5;strokeColor=#666666;" parent="1" vertex="1">
          <mxGeometry x="760" y="740" width="200" height="120" as="geometry" />
        </mxCell>
        <mxCell id="0PxaPcuy5lQX8IVzOLOX-10" style="edgeStyle=orthogonalEdgeStyle;rounded=0;orthogonalLoop=1;jettySize=auto;html=1;entryX=0;entryY=0.5;entryDx=0;entryDy=0;" parent="1" source="3a17f1ce550125da-11" target="0PxaPcuy5lQX8IVzOLOX-9" edge="1">
          <mxGeometry relative="1" as="geometry" />
        </mxCell>
        <mxCell id="3a17f1ce550125da-11" value="Clock&lt;div&gt;Generator&lt;/div&gt;" style="whiteSpace=wrap;html=1;shadow=1;fontSize=18;fillColor=#f5f5f5;strokeColor=#666666;" parent="1" vertex="1">
          <mxGeometry x="750" y="340" width="100" height="60" as="geometry" />
        </mxCell>
        <mxCell id="yzXIWAhKr3S2XXen1-xH-7" value="&lt;font&gt;Data&lt;/font&gt;&lt;div&gt;&lt;font&gt;Memory&lt;/font&gt;&lt;/div&gt;" style="whiteSpace=wrap;html=1;shadow=1;fontSize=18;fillColor=#f5f5f5;strokeColor=#666666;" parent="1" vertex="1">
          <mxGeometry x="1040" y="440" width="120" height="160" as="geometry" />
        </mxCell>
        <mxCell id="yzXIWAhKr3S2XXen1-xH-8" value="MemWrite" style="text;html=1;align=left;verticalAlign=middle;whiteSpace=wrap;rounded=0;" parent="1" vertex="1">
          <mxGeometry x="1040" y="460" width="60" height="20" as="geometry" />
        </mxCell>
        <mxCell id="yzXIWAhKr3S2XXen1-xH-9" value="MemRead" style="text;html=1;align=left;verticalAlign=middle;whiteSpace=wrap;rounded=0;" parent="1" vertex="1">
          <mxGeometry x="1040" y="480" width="60" height="20" as="geometry" />
        </mxCell>
        <mxCell id="yzXIWAhKr3S2XXen1-xH-10" value="ByteMask" style="text;html=1;align=left;verticalAlign=middle;whiteSpace=wrap;rounded=0;" parent="1" vertex="1">
          <mxGeometry x="1040" y="540" width="60" height="20" as="geometry" />
        </mxCell>
        <mxCell id="yzXIWAhKr3S2XXen1-xH-11" value="DM_WD" style="text;html=1;align=left;verticalAlign=middle;whiteSpace=wrap;rounded=0;" parent="1" vertex="1">
          <mxGeometry x="1040" y="560" width="60" height="20" as="geometry" />
        </mxCell>
        <mxCell id="yzXIWAhKr3S2XXen1-xH-12" value="DM_addr" style="text;html=1;align=left;verticalAlign=middle;whiteSpace=wrap;rounded=0;" parent="1" vertex="1">
          <mxGeometry x="1040" y="580" width="60" height="20" as="geometry" />
        </mxCell>
        <mxCell id="yzXIWAhKr3S2XXen1-xH-13" style="edgeStyle=elbowEdgeStyle;rounded=0;html=1;startArrow=none;startFill=0;jettySize=auto;orthogonalLoop=1;fontSize=18;elbow=vertical;" parent="1" edge="1">
          <mxGeometry relative="1" as="geometry">
            <mxPoint x="950" y="489.83666666666664" as="sourcePoint" />
            <mxPoint x="1040" y="489.83666666666676" as="targetPoint" />
          </mxGeometry>
        </mxCell>
        <mxCell id="yzXIWAhKr3S2XXen1-xH-14" style="edgeStyle=elbowEdgeStyle;rounded=0;html=1;startArrow=none;startFill=0;jettySize=auto;orthogonalLoop=1;fontSize=18;elbow=vertical;" parent="1" edge="1">
          <mxGeometry relative="1" as="geometry">
            <mxPoint x="950" y="549.8366666666666" as="sourcePoint" />
            <mxPoint x="1040" y="549.8366666666668" as="targetPoint" />
          </mxGeometry>
        </mxCell>
        <mxCell id="yzXIWAhKr3S2XXen1-xH-15" style="edgeStyle=elbowEdgeStyle;rounded=0;html=1;startArrow=none;startFill=0;jettySize=auto;orthogonalLoop=1;fontSize=18;elbow=vertical;" parent="1" edge="1">
          <mxGeometry relative="1" as="geometry">
            <mxPoint x="950" y="569.8366666666666" as="sourcePoint" />
            <mxPoint x="1040" y="569.8366666666668" as="targetPoint" />
          </mxGeometry>
        </mxCell>
        <mxCell id="yzXIWAhKr3S2XXen1-xH-16" style="edgeStyle=elbowEdgeStyle;rounded=0;html=1;startArrow=none;startFill=0;jettySize=auto;orthogonalLoop=1;fontSize=18;elbow=vertical;" parent="1" edge="1">
          <mxGeometry relative="1" as="geometry">
            <mxPoint x="950" y="589.9966666666666" as="sourcePoint" />
            <mxPoint x="1040" y="589.9966666666668" as="targetPoint" />
          </mxGeometry>
        </mxCell>
        <mxCell id="yzXIWAhKr3S2XXen1-xH-20" style="edgeStyle=orthogonalEdgeStyle;rounded=0;orthogonalLoop=1;jettySize=auto;html=1;entryX=1;entryY=0.036;entryDx=0;entryDy=0;entryPerimeter=0;" parent="1" source="yzXIWAhKr3S2XXen1-xH-17" target="3a17f1ce550125da-2" edge="1">
          <mxGeometry relative="1" as="geometry">
            <mxPoint x="950" y="500" as="targetPoint" />
            <Array as="points" />
          </mxGeometry>
        </mxCell>
        <mxCell id="yzXIWAhKr3S2XXen1-xH-17" value="DM_RD" style="text;html=1;align=left;verticalAlign=middle;whiteSpace=wrap;rounded=0;" parent="1" vertex="1">
          <mxGeometry x="1040" y="440" width="50" height="20" as="geometry" />
        </mxCell>
        <mxCell id="yzXIWAhKr3S2XXen1-xH-21" value="DM2RF_RD&lt;div&gt;(BE_L)&lt;/div&gt;" style="text;html=1;align=left;verticalAlign=middle;whiteSpace=wrap;rounded=0;" parent="1" vertex="1">
          <mxGeometry x="880" y="440" width="70" height="30" as="geometry" />
        </mxCell>
        <mxCell id="0PxaPcuy5lQX8IVzOLOX-1" value="" style="group" parent="1" vertex="1" connectable="0">
          <mxGeometry x="560" y="440" width="120" height="90" as="geometry" />
        </mxCell>
        <mxCell id="3a17f1ce550125da-8" value="I. Memory" style="whiteSpace=wrap;html=1;shadow=1;fontSize=18;fillColor=#f5f5f5;strokeColor=#666666;" parent="0PxaPcuy5lQX8IVzOLOX-1" vertex="1">
          <mxGeometry width="120" height="90" as="geometry" />
        </mxCell>
        <mxCell id="yzXIWAhKr3S2XXen1-xH-5" value="IM_RD" style="text;html=1;align=right;verticalAlign=middle;whiteSpace=wrap;rounded=0;" parent="0PxaPcuy5lQX8IVzOLOX-1" vertex="1">
          <mxGeometry x="80" y="10" width="40" height="20" as="geometry" />
        </mxCell>
        <mxCell id="0PxaPcuy5lQX8IVzOLOX-42" value="IM_Addr" style="text;html=1;align=center;verticalAlign=middle;whiteSpace=wrap;rounded=0;" parent="0PxaPcuy5lQX8IVzOLOX-1" vertex="1">
          <mxGeometry x="70" y="70" width="50" height="20" as="geometry" />
        </mxCell>
        <mxCell id="0PxaPcuy5lQX8IVzOLOX-2" value="" style="group" parent="1" vertex="1" connectable="0">
          <mxGeometry x="560" y="560" width="120" height="160" as="geometry" />
        </mxCell>
        <mxCell id="0PxaPcuy5lQX8IVzOLOX-3" value="I. Cache&lt;div&gt;&lt;br&gt;&lt;/div&gt;" style="whiteSpace=wrap;html=1;shadow=1;fontSize=18;fillColor=#f5f5f5;strokeColor=#666666;" parent="0PxaPcuy5lQX8IVzOLOX-2" vertex="1">
          <mxGeometry width="120" height="160" as="geometry" />
        </mxCell>
        <mxCell id="0PxaPcuy5lQX8IVzOLOX-4" value="IC_RD" style="text;html=1;align=right;verticalAlign=middle;whiteSpace=wrap;rounded=0;" parent="0PxaPcuy5lQX8IVzOLOX-2" vertex="1">
          <mxGeometry x="80" y="19.998571428571427" width="40" height="22.857142857142854" as="geometry" />
        </mxCell>
        <mxCell id="0PxaPcuy5lQX8IVzOLOX-5" value="Addr (PC)" style="text;html=1;align=right;verticalAlign=middle;whiteSpace=wrap;rounded=0;" parent="0PxaPcuy5lQX8IVzOLOX-2" vertex="1">
          <mxGeometry x="60" y="80" width="60" height="20" as="geometry" />
        </mxCell>
        <mxCell id="0PxaPcuy5lQX8IVzOLOX-19" value="Up_Addr" style="text;html=1;align=left;verticalAlign=middle;whiteSpace=wrap;rounded=0;" parent="0PxaPcuy5lQX8IVzOLOX-2" vertex="1">
          <mxGeometry y="30" width="50" height="20" as="geometry" />
        </mxCell>
        <mxCell id="0PxaPcuy5lQX8IVzOLOX-20" value="IC_Status" style="text;html=1;align=left;verticalAlign=middle;whiteSpace=wrap;rounded=0;" parent="0PxaPcuy5lQX8IVzOLOX-2" vertex="1">
          <mxGeometry x="60" y="140" width="60" height="20" as="geometry" />
        </mxCell>
        <mxCell id="0PxaPcuy5lQX8IVzOLOX-25" value="Up_Data" style="text;html=1;align=left;verticalAlign=middle;whiteSpace=wrap;rounded=0;" parent="0PxaPcuy5lQX8IVzOLOX-2" vertex="1">
          <mxGeometry y="10" width="50" height="20" as="geometry" />
        </mxCell>
        <mxCell id="TZqJoyw8SQo_n2cczf-P-25" value="Addr (PC)" style="text;html=1;align=right;verticalAlign=middle;whiteSpace=wrap;rounded=0;" vertex="1" parent="0PxaPcuy5lQX8IVzOLOX-2">
          <mxGeometry x="60" y="120" width="60" height="20" as="geometry" />
        </mxCell>
        <mxCell id="0PxaPcuy5lQX8IVzOLOX-9" value="" style="triangle;whiteSpace=wrap;html=1;rotation=90;" parent="1" vertex="1">
          <mxGeometry x="790" y="430" width="20" height="40" as="geometry" />
        </mxCell>
        <mxCell id="0PxaPcuy5lQX8IVzOLOX-21" value="IC_Status" style="text;html=1;align=left;verticalAlign=middle;whiteSpace=wrap;rounded=0;" parent="1" vertex="1">
          <mxGeometry x="760" y="760" width="60" height="20" as="geometry" />
        </mxCell>
        <mxCell id="yCRBKu3NA8U0qdzCXT5R-9" style="edgeStyle=orthogonalEdgeStyle;rounded=0;orthogonalLoop=1;jettySize=auto;html=1;entryX=0;entryY=0.5;entryDx=0;entryDy=0;exitX=0;exitY=0.5;exitDx=0;exitDy=0;" parent="1" source="0PxaPcuy5lQX8IVzOLOX-22" target="0PxaPcuy5lQX8IVzOLOX-19" edge="1">
          <mxGeometry relative="1" as="geometry">
            <Array as="points">
              <mxPoint x="540" y="790" />
              <mxPoint x="540" y="600" />
            </Array>
          </mxGeometry>
        </mxCell>
        <mxCell id="0PxaPcuy5lQX8IVzOLOX-22" value="Up_Addr" style="text;html=1;align=center;verticalAlign=middle;whiteSpace=wrap;rounded=0;" parent="1" vertex="1">
          <mxGeometry x="760" y="780" width="50" height="20" as="geometry" />
        </mxCell>
        <mxCell id="0PxaPcuy5lQX8IVzOLOX-24" style="edgeStyle=orthogonalEdgeStyle;rounded=0;orthogonalLoop=1;jettySize=auto;html=1;entryX=0;entryY=0.5;entryDx=0;entryDy=0;exitX=1;exitY=0.5;exitDx=0;exitDy=0;" parent="1" source="0PxaPcuy5lQX8IVzOLOX-20" target="0PxaPcuy5lQX8IVzOLOX-21" edge="1">
          <mxGeometry relative="1" as="geometry">
            <Array as="points">
              <mxPoint x="730" y="710" />
              <mxPoint x="730" y="770" />
            </Array>
          </mxGeometry>
        </mxCell>
        <mxCell id="0PxaPcuy5lQX8IVzOLOX-46" value="Instruction&lt;br&gt;Decoder" style="text;html=1;align=left;verticalAlign=middle;whiteSpace=wrap;rounded=0;" parent="1" vertex="1">
          <mxGeometry x="770" y="510" width="60" height="20" as="geometry" />
        </mxCell>
        <mxCell id="yCRBKu3NA8U0qdzCXT5R-3" style="edgeStyle=orthogonalEdgeStyle;rounded=0;orthogonalLoop=1;jettySize=auto;html=1;entryX=0;entryY=0.5;entryDx=0;entryDy=0;jumpStyle=arc;" parent="1" source="TZqJoyw8SQo_n2cczf-P-30" target="0PxaPcuy5lQX8IVzOLOX-25" edge="1">
          <mxGeometry relative="1" as="geometry">
            <Array as="points">
              <mxPoint x="710" y="430" />
              <mxPoint x="540" y="430" />
              <mxPoint x="540" y="580" />
            </Array>
          </mxGeometry>
        </mxCell>
        <mxCell id="TZqJoyw8SQo_n2cczf-P-24" style="edgeStyle=orthogonalEdgeStyle;rounded=0;orthogonalLoop=1;jettySize=auto;html=1;entryX=1;entryY=0.5;entryDx=0;entryDy=0;fontFamily=Helvetica;fontSize=12;fontColor=default;" edge="1" parent="1" source="TZqJoyw8SQo_n2cczf-P-5" target="0PxaPcuy5lQX8IVzOLOX-5">
          <mxGeometry relative="1" as="geometry" />
        </mxCell>
        <mxCell id="TZqJoyw8SQo_n2cczf-P-5" value="PC" style="text;html=1;align=left;verticalAlign=middle;whiteSpace=wrap;rounded=0;" vertex="1" parent="1">
          <mxGeometry x="770" y="640" width="20" height="20" as="geometry" />
        </mxCell>
        <mxCell id="TZqJoyw8SQo_n2cczf-P-7" value="Addr (PC)" style="text;html=1;align=left;verticalAlign=middle;whiteSpace=wrap;rounded=0;" vertex="1" parent="1">
          <mxGeometry x="760" y="740" width="60" height="20" as="geometry" />
        </mxCell>
        <mxCell id="TZqJoyw8SQo_n2cczf-P-26" style="edgeStyle=orthogonalEdgeStyle;rounded=0;orthogonalLoop=1;jettySize=auto;html=1;entryX=0;entryY=0.5;entryDx=0;entryDy=0;fontFamily=Helvetica;fontSize=12;fontColor=default;" edge="1" parent="1" source="TZqJoyw8SQo_n2cczf-P-25" target="TZqJoyw8SQo_n2cczf-P-7">
          <mxGeometry relative="1" as="geometry">
            <Array as="points">
              <mxPoint x="740" y="690" />
              <mxPoint x="740" y="750" />
            </Array>
          </mxGeometry>
        </mxCell>
        <mxCell id="TZqJoyw8SQo_n2cczf-P-28" value="" style="shape=waypoint;sketch=0;size=6;pointerEvents=1;points=[];fillColor=none;resizable=0;rotatable=0;perimeter=centerPerimeter;snapToPoint=1;align=center;verticalAlign=top;fontFamily=Helvetica;fontSize=12;fontColor=default;" vertex="1" parent="1">
          <mxGeometry x="690" y="680" width="20" height="20" as="geometry" />
        </mxCell>
        <mxCell id="TZqJoyw8SQo_n2cczf-P-29" style="edgeStyle=orthogonalEdgeStyle;rounded=0;orthogonalLoop=1;jettySize=auto;html=1;entryX=0;entryY=0.25;entryDx=0;entryDy=0;fontFamily=Helvetica;fontSize=12;fontColor=default;exitX=1;exitY=0.5;exitDx=0;exitDy=0;" edge="1" parent="1" source="yzXIWAhKr3S2XXen1-xH-5" target="TZqJoyw8SQo_n2cczf-P-34">
          <mxGeometry relative="1" as="geometry">
            <Array as="points">
              <mxPoint x="710" y="460" />
              <mxPoint x="710" y="513" />
              <mxPoint x="730" y="513" />
            </Array>
          </mxGeometry>
        </mxCell>
        <mxCell id="TZqJoyw8SQo_n2cczf-P-30" value="" style="shape=waypoint;sketch=0;size=6;pointerEvents=1;points=[];fillColor=none;resizable=0;rotatable=0;perimeter=centerPerimeter;snapToPoint=1;align=center;verticalAlign=top;fontFamily=Helvetica;fontSize=12;fontColor=default;" vertex="1" parent="1">
          <mxGeometry x="700" y="450" width="20" height="20" as="geometry" />
        </mxCell>
        <mxCell id="TZqJoyw8SQo_n2cczf-P-36" style="edgeStyle=orthogonalEdgeStyle;rounded=0;orthogonalLoop=1;jettySize=auto;html=1;entryX=0;entryY=0.5;entryDx=0;entryDy=0;fontFamily=Helvetica;fontSize=12;fontColor=default;" edge="1" parent="1" source="TZqJoyw8SQo_n2cczf-P-34" target="0PxaPcuy5lQX8IVzOLOX-46">
          <mxGeometry relative="1" as="geometry" />
        </mxCell>
        <mxCell id="TZqJoyw8SQo_n2cczf-P-35" style="edgeStyle=orthogonalEdgeStyle;rounded=0;orthogonalLoop=1;jettySize=auto;html=1;entryX=0;entryY=0.75;entryDx=0;entryDy=0;fontFamily=Helvetica;fontSize=12;fontColor=default;" edge="1" parent="1" source="0PxaPcuy5lQX8IVzOLOX-4" target="TZqJoyw8SQo_n2cczf-P-34">
          <mxGeometry relative="1" as="geometry">
            <Array as="points">
              <mxPoint x="710" y="591" />
              <mxPoint x="710" y="528" />
              <mxPoint x="730" y="528" />
            </Array>
          </mxGeometry>
        </mxCell>
        <mxCell id="TZqJoyw8SQo_n2cczf-P-37" value="" style="group" vertex="1" connectable="0" parent="1">
          <mxGeometry x="730" y="490" width="20" height="60" as="geometry" />
        </mxCell>
        <mxCell id="TZqJoyw8SQo_n2cczf-P-31" value="" style="shape=trapezoid;perimeter=trapezoidPerimeter;whiteSpace=wrap;html=1;fixedSize=1;pointerEvents=0;align=center;verticalAlign=top;fontFamily=Helvetica;fontSize=12;fontColor=#333333;fillColor=#f5f5f5;strokeColor=#666666;shadow=1;rotation=90;" vertex="1" parent="TZqJoyw8SQo_n2cczf-P-37">
          <mxGeometry x="-20" y="20" width="60" height="20" as="geometry" />
        </mxCell>
        <mxCell id="TZqJoyw8SQo_n2cczf-P-34" value="01&lt;div&gt;00&lt;/div&gt;" style="text;html=1;align=center;verticalAlign=middle;whiteSpace=wrap;rounded=0;fontFamily=Helvetica;fontSize=12;fontColor=default;" vertex="1" parent="TZqJoyw8SQo_n2cczf-P-37">
          <mxGeometry y="15" width="20" height="30" as="geometry" />
        </mxCell>
        <mxCell id="TZqJoyw8SQo_n2cczf-P-27" style="edgeStyle=orthogonalEdgeStyle;rounded=0;orthogonalLoop=1;jettySize=auto;html=1;entryX=1;entryY=0.5;entryDx=0;entryDy=0;fontFamily=Helvetica;fontSize=12;fontColor=default;jumpStyle=arc;" edge="1" parent="1" source="TZqJoyw8SQo_n2cczf-P-25" target="0PxaPcuy5lQX8IVzOLOX-42">
          <mxGeometry relative="1" as="geometry">
            <Array as="points">
              <mxPoint x="700" y="690" />
              <mxPoint x="700" y="520" />
            </Array>
          </mxGeometry>
        </mxCell>
        <mxCell id="TZqJoyw8SQo_n2cczf-P-39" value="" style="group" vertex="1" connectable="0" parent="1">
          <mxGeometry x="1040" y="640" width="120" height="190" as="geometry" />
        </mxCell>
        <mxCell id="3a17f1ce550125da-5" value="D. Cache" style="whiteSpace=wrap;html=1;shadow=1;fontSize=18;fillColor=#f5f5f5;strokeColor=#666666;" parent="TZqJoyw8SQo_n2cczf-P-39" vertex="1">
          <mxGeometry width="120" height="190" as="geometry" />
        </mxCell>
        <mxCell id="TZqJoyw8SQo_n2cczf-P-13" value="DC_addr" style="text;html=1;align=left;verticalAlign=middle;whiteSpace=wrap;rounded=0;" vertex="1" parent="TZqJoyw8SQo_n2cczf-P-39">
          <mxGeometry width="60" height="20" as="geometry" />
        </mxCell>
        <mxCell id="TZqJoyw8SQo_n2cczf-P-14" value="MemRead" style="text;html=1;align=left;verticalAlign=middle;whiteSpace=wrap;rounded=0;" vertex="1" parent="TZqJoyw8SQo_n2cczf-P-39">
          <mxGeometry y="20" width="60" height="20" as="geometry" />
        </mxCell>
        <mxCell id="TZqJoyw8SQo_n2cczf-P-15" value="MemWrite" style="text;html=1;align=left;verticalAlign=middle;whiteSpace=wrap;rounded=0;" vertex="1" parent="TZqJoyw8SQo_n2cczf-P-39">
          <mxGeometry y="40" width="60" height="20" as="geometry" />
        </mxCell>
        <mxCell id="TZqJoyw8SQo_n2cczf-P-16" value="DC_WD" style="text;html=1;align=left;verticalAlign=middle;whiteSpace=wrap;rounded=0;" vertex="1" parent="TZqJoyw8SQo_n2cczf-P-39">
          <mxGeometry y="60" width="60" height="20" as="geometry" />
        </mxCell>
        <mxCell id="TZqJoyw8SQo_n2cczf-P-17" value="DC_RD" style="text;html=1;align=right;verticalAlign=middle;whiteSpace=wrap;rounded=0;" vertex="1" parent="TZqJoyw8SQo_n2cczf-P-39">
          <mxGeometry x="70" y="130" width="50" height="20" as="geometry" />
        </mxCell>
        <mxCell id="TZqJoyw8SQo_n2cczf-P-18" value="DC_Status" style="text;html=1;align=right;verticalAlign=middle;whiteSpace=wrap;rounded=0;" vertex="1" parent="TZqJoyw8SQo_n2cczf-P-39">
          <mxGeometry x="60" y="150" width="60" height="20" as="geometry" />
        </mxCell>
        <mxCell id="TZqJoyw8SQo_n2cczf-P-19" value="Up_Addr" style="text;html=1;align=left;verticalAlign=middle;whiteSpace=wrap;rounded=0;" vertex="1" parent="TZqJoyw8SQo_n2cczf-P-39">
          <mxGeometry x="70" y="30" width="50" height="20" as="geometry" />
        </mxCell>
        <mxCell id="TZqJoyw8SQo_n2cczf-P-20" value="Up_Data" style="text;html=1;align=left;verticalAlign=middle;whiteSpace=wrap;rounded=0;" vertex="1" parent="TZqJoyw8SQo_n2cczf-P-39">
          <mxGeometry x="70" y="10" width="50" height="20" as="geometry" />
        </mxCell>
        <mxCell id="TZqJoyw8SQo_n2cczf-P-41" style="edgeStyle=orthogonalEdgeStyle;rounded=0;orthogonalLoop=1;jettySize=auto;html=1;entryX=1;entryY=0.5;entryDx=0;entryDy=0;fontFamily=Helvetica;fontSize=12;fontColor=default;jumpStyle=arc;" edge="1" parent="1" source="TZqJoyw8SQo_n2cczf-P-40" target="TZqJoyw8SQo_n2cczf-P-31">
          <mxGeometry relative="1" as="geometry">
            <Array as="points">
              <mxPoint x="710" y="830" />
              <mxPoint x="710" y="620" />
              <mxPoint x="740" y="620" />
            </Array>
          </mxGeometry>
        </mxCell>
        <mxCell id="TZqJoyw8SQo_n2cczf-P-40" value="IC.IM_MUX" style="text;html=1;align=center;verticalAlign=middle;whiteSpace=wrap;rounded=0;" vertex="1" parent="1">
          <mxGeometry x="760" y="820" width="70" height="20" as="geometry" />
        </mxCell>
      </root>
    </mxGraphModel>
  </diagram>
</mxfile>
